<svg xmlns="http://www.w3.org/2000/svg" xmlns:xlink="http://www.w3.org/1999/xlink" viewBox="0,0,256,256" width="500px" height="500px"><g fill="#3498db" fill-rule="nonzero" stroke="none" stroke-width="1" stroke-linecap="butt" stroke-linejoin="miter" stroke-miterlimit="10" stroke-dasharray="" stroke-dashoffset="0" font-family="none" font-weight="none" font-size="none" text-anchor="none" style="mix-blend-mode: normal"><g transform="scale(5.12,5.12)"><path d="M24.875,3.30078c-4.69141,0.10547 -7.66406,2.02734 -8.94141,4.96484c-1.21875,2.80078 -0.95312,6.3125 -0.07812,9.98438c-0.46094,0.54688 -0.84766,1.28516 -0.75,2.43359v0.02344l0.00391,0.02734c0.16797,1.21875 0.50391,2.08594 0.96875,2.69922c0.23438,0.30078 0.56641,0.3125 0.85547,0.47656c0.16797,1.07813 0.49219,2.14844 0.9375,3.02734c0.25391,0.50391 0.52344,0.94531 0.80078,1.31641c0.12109,0.16797 0.28906,0.27344 0.42188,0.41406c0.01172,1.27734 0.06641,2.27734 -0.08203,3.56641c-0.29297,0.77734 -1.03516,1.41406 -2.25391,2.03125c-1.25391,0.63281 -2.89844,1.19531 -4.56641,1.91797c-1.66797,0.71875 -3.37109,1.60547 -4.73047,2.98438c-1.35937,1.37891 -2.32031,3.28516 -2.46094,5.77734l-0.05469,1.05469h40.11328l-0.05859,-1.05469c-0.14062,-2.49219 -1.09375,-4.39453 -2.44531,-5.77344c-1.35156,-1.38281 -3.05078,-2.26953 -4.72266,-2.98828c-1.66797,-0.72266 -3.32031,-1.28516 -4.59375,-1.92187c-1.23047,-0.61328 -2.00781,-1.25781 -2.34766,-2.03906c-0.07422,-1.3125 -0.08203,-2.33203 -0.08203,-3.56641c0.125,-0.14062 0.29688,-0.24609 0.41406,-0.41016c0.26953,-0.375 0.52734,-0.82031 0.77344,-1.31641c0.43359,-0.87891 0.76563,-1.94141 0.96875,-2.99609c0.32031,-0.16406 0.67969,-0.17578 0.92969,-0.5c0.48047,-0.63281 0.78906,-1.51562 0.90234,-2.74219v-0.00781c0.08984,-1.05859 -0.23828,-1.81641 -0.71484,-2.39453c0.52344,-1.60156 1.13672,-4.15234 0.9375,-6.77734c-0.10547,-1.4375 -0.46484,-2.87891 -1.31641,-4.07031c-0.78125,-1.08594 -2.04687,-1.85547 -3.63672,-2.1875c-1.0625,-1.39453 -2.97266,-1.95312 -5.16406,-1.95312zM24.90234,5.30078c2.01563,0 3.31641,0.58594 3.73438,1.30078l0.24219,0.42188l0.48047,0.06641c1.375,0.19141 2.15625,0.73828 2.71484,1.51562c0.55859,0.77734 0.86328,1.85938 0.95313,3.05859c0.18359,2.40234 -0.51172,5.21875 -0.96875,6.5l-0.29687,0.83594l0.78906,0.39453c-0.13281,-0.06641 0.32813,0.23047 0.25,1.12109c-0.08594,0.96875 -0.32812,1.48047 -0.49609,1.70313c-0.16797,0.21875 -0.23828,0.18359 -0.20703,0.18359h-0.86328l-0.125,0.85547c-0.12891,0.90234 -0.49609,1.95703 -0.90625,2.78906c-0.20312,0.41406 -0.42187,0.77734 -0.60547,1.03125c-0.17969,0.25391 -0.375,0.40234 -0.29297,0.35547l-0.50391,0.28516v0.58203c0,1.00391 0.01172,1.88672 0.04297,2.82031l-3.84375,2.13281l-3.89062,-2.16016c0.03125,-0.96484 -0.01172,-1.82031 -0.01172,-2.79297v-0.58203l-0.50391,-0.28516c0.07813,0.03906 -0.125,-0.11328 -0.31641,-0.37109c-0.19141,-0.25391 -0.41406,-0.61328 -0.62109,-1.02734c-0.41797,-0.82422 -0.77734,-1.86328 -0.85937,-2.73047l-0.08984,-0.90234h-0.90625c0.14844,0 0.05078,0.05469 -0.12891,-0.18359c-0.18359,-0.23828 -0.43359,-0.77734 -0.57031,-1.72266c-0.04687,-0.80859 0.4375,-1.21875 0.35156,-1.16406l0.58984,-0.39453l-0.17187,-0.68359c-0.92578,-3.64453 -1.07812,-6.95312 -0.10547,-9.19141c0.97266,-2.23828 2.94531,-3.66406 7.13672,-3.76172zM20.78516,33.20313l2.48438,1.37891l-2.28125,2.83594l-1.85937,-2.25781c0.70703,-0.51953 1.29297,-1.15234 1.65625,-1.95703zM29.14453,33.23828c0.39453,0.79688 1.01172,1.40625 1.73047,1.91797l-1.86328,2.26172l-2.28125,-2.83594zM17.375,36.17969l2.85547,3.45703c0.1875,0.23047 0.47656,0.36719 0.77734,0.36328c0.30078,0 0.58203,-0.14062 0.77344,-0.375l1.96094,-2.4375l0.75781,0.61328c0,0 -1.75391,3.01172 -2.25781,6.19922h-15.00781c0.27734,-1.42578 0.80469,-2.56641 1.65234,-3.42969c1.0625,-1.08203 2.52734,-1.875 4.09766,-2.55469c1.47266,-0.63281 3.01172,-1.17187 4.39063,-1.83594zM32.625,36.17969c1.39063,0.66406 2.94531,1.20313 4.41797,1.83594c1.56641,0.67969 3.02344,1.47266 4.08203,2.55078c0.84375,0.86328 1.36719,2.00781 1.64063,3.43359h-15c-0.5,-3.24219 -2.26562,-6.19922 -2.26562,-6.19922l0.75781,-0.61328l1.96094,2.4375c0.19141,0.23438 0.47266,0.375 0.77344,0.375c0.30078,0.00391 0.58984,-0.13281 0.77734,-0.36328z"></path></g></g></svg>