<svg xmlns="http://www.w3.org/2000/svg" xmlns:xlink="http://www.w3.org/1999/xlink" viewBox="0,0,256,256" width="500px" height="500px"><g fill="#3498db" fill-rule="nonzero" stroke="none" stroke-width="1" stroke-linecap="butt" stroke-linejoin="miter" stroke-miterlimit="10" stroke-dasharray="" stroke-dashoffset="0" font-family="none" font-weight="none" font-size="none" text-anchor="none" style="mix-blend-mode: normal"><g transform="scale(5.12,5.12)"><path d="M24.90625,0.96875c-0.04297,0.00781 -0.08594,0.01953 -0.125,0.03125c-0.46484,0.10547 -0.79297,0.52344 -0.78125,1v4c-0.00391,0.35938 0.18359,0.69531 0.49609,0.87891c0.3125,0.17969 0.69531,0.17969 1.00781,0c0.3125,-0.18359 0.5,-0.51953 0.49609,-0.87891v-4c0.01172,-0.28906 -0.10547,-0.56641 -0.3125,-0.76172c-0.21094,-0.19922 -0.49609,-0.29687 -0.78125,-0.26953zM10.03125,7.125c-0.03125,0.00781 -0.0625,0.01953 -0.09375,0.03125c-0.35937,0.07422 -0.64844,0.34375 -0.75391,0.69531c-0.10547,0.35156 -0.00781,0.73438 0.25391,0.99219l2.84375,2.84375c0.24219,0.29688 0.62891,0.43359 1.00391,0.34766c0.37109,-0.08594 0.66406,-0.37891 0.75,-0.75c0.08594,-0.375 -0.05078,-0.76172 -0.34766,-1.00391l-2.84375,-2.84375c-0.1875,-0.19922 -0.44531,-0.30859 -0.71875,-0.3125c-0.03125,0 -0.0625,0 -0.09375,0zM39.75,7.125c-0.04297,0.00781 -0.08594,0.01953 -0.125,0.03125c-0.17969,0.04688 -0.33984,0.14453 -0.46875,0.28125l-2.84375,2.84375c-0.29687,0.24219 -0.43359,0.62891 -0.34766,1.00391c0.08594,0.37109 0.37891,0.66406 0.75,0.75c0.375,0.08594 0.76172,-0.05078 1.00391,-0.34766l2.84375,-2.84375c0.3125,-0.29687 0.40234,-0.76172 0.21875,-1.15234c-0.1875,-0.39453 -0.60156,-0.62109 -1.03125,-0.56641zM25,9c-7.71875,0 -14,6.28125 -14,14c0,4.89063 2.19141,8.17578 4.25,10.59375c1.03125,1.20703 2.02734,2.23047 2.71875,3.125c0.69141,0.89453 1.03125,1.60938 1.03125,2.28125v3.53125c-0.13281,0.27734 -0.13281,0.59766 0,0.875v0.59375c0,1.64453 1.35547,3 3,3h0.78125c0.55078,0.60938 1.33594,1 2.21875,1c0.88281,0 1.66797,-0.39062 2.21875,-1h0.78125c1.64453,0 3,-1.35547 3,-3v-0.8125c0.02734,-0.13281 0.02734,-0.27344 0,-0.40625v-3.78125c0,-0.67187 0.33984,-1.39453 1.03125,-2.28125c0.69141,-0.88672 1.6875,-1.89062 2.71875,-3.09375c2.05859,-2.40625 4.25,-5.69141 4.25,-10.625c0,-7.71875 -6.28125,-14 -14,-14zM25,11c6.64063,0 12,5.35938 12,12c0,4.35938 -1.80859,7.07813 -3.75,9.34375c-0.96875,1.13281 -1.97266,2.12109 -2.78125,3.15625c-0.59375,0.76172 -1.01953,1.59375 -1.25,2.5h-8.4375c-0.23047,-0.90625 -0.65625,-1.73437 -1.25,-2.5c-0.80859,-1.04297 -1.8125,-2.04687 -2.78125,-3.1875c-1.94141,-2.27734 -3.75,-5 -3.75,-9.3125c0,-6.64062 5.35938,-12 12,-12zM3.71875,22c-0.55078,0.07813 -0.9375,0.58984 -0.85937,1.14063c0.07813,0.55078 0.58984,0.9375 1.14063,0.85938h4c0.35938,0.00391 0.69531,-0.18359 0.87891,-0.49609c0.17969,-0.3125 0.17969,-0.69531 0,-1.00781c-0.18359,-0.3125 -0.51953,-0.5 -0.87891,-0.49609h-4c-0.03125,0 -0.0625,0 -0.09375,0c-0.03125,0 -0.0625,0 -0.09375,0c-0.03125,0 -0.0625,0 -0.09375,0zM41.71875,22c-0.55078,0.07813 -0.9375,0.58984 -0.85937,1.14063c0.07813,0.55078 0.58984,0.9375 1.14063,0.85938h4c0.35938,0.00391 0.69531,-0.18359 0.87891,-0.49609c0.17969,-0.3125 0.17969,-0.69531 0,-1.00781c-0.18359,-0.3125 -0.51953,-0.5 -0.87891,-0.49609h-4c-0.03125,0 -0.0625,0 -0.09375,0c-0.03125,0 -0.0625,0 -0.09375,0c-0.03125,0 -0.0625,0 -0.09375,0zM12.875,34c-0.22656,0.03125 -0.4375,0.14453 -0.59375,0.3125l-2.84375,2.84375c-0.29687,0.24219 -0.43359,0.62891 -0.34766,1.00391c0.08594,0.37109 0.37891,0.66406 0.75,0.75c0.375,0.08594 0.76172,-0.05078 1.00391,-0.34766l2.84375,-2.84375c0.29688,-0.28516 0.38672,-0.72656 0.22656,-1.10547c-0.15625,-0.37891 -0.53516,-0.62109 -0.94531,-0.61328c-0.03125,0 -0.0625,0 -0.09375,0zM36.8125,34c-0.375,0.06641 -0.67578,0.33984 -0.78125,0.70313c-0.10547,0.36719 0.00391,0.75781 0.28125,1.01563l2.84375,2.84375c0.24219,0.29688 0.62891,0.43359 1.00391,0.34766c0.37109,-0.08594 0.66406,-0.37891 0.75,-0.75c0.08594,-0.375 -0.05078,-0.76172 -0.34766,-1.00391l-2.84375,-2.84375c-0.1875,-0.19922 -0.44531,-0.30859 -0.71875,-0.3125c-0.03125,0 -0.0625,0 -0.09375,0c-0.03125,0 -0.0625,0 -0.09375,0zM21,40h8v2h-5c-0.03125,0 -0.0625,0 -0.09375,0c-0.03125,0 -0.0625,0 -0.09375,0c-0.55078,0.05078 -0.95703,0.54297 -0.90625,1.09375c0.05078,0.55078 0.54297,0.95703 1.09375,0.90625h5c0,0.56641 -0.43359,1 -1,1h-6c-0.56641,0 -1,-0.43359 -1,-1c0.35938,0.00391 0.69531,-0.18359 0.87891,-0.49609c0.17969,-0.3125 0.17969,-0.69531 0,-1.00781c-0.18359,-0.3125 -0.51953,-0.5 -0.87891,-0.49609z"></path></g></g></svg>