<svg xmlns="http://www.w3.org/2000/svg" xmlns:xlink="http://www.w3.org/1999/xlink" viewBox="0,0,256,256" width="500px" height="500px"><g fill="#3498db" fill-rule="nonzero" stroke="none" stroke-width="1" stroke-linecap="butt" stroke-linejoin="miter" stroke-miterlimit="10" stroke-dasharray="" stroke-dashoffset="0" font-family="none" font-weight="none" font-size="none" text-anchor="none" style="mix-blend-mode: normal"><g transform="scale(5.12,5.12)"><path d="M21,2v3h2v1.09766c-10.64968,1.00978 -19,9.99117 -19,20.90234c0,11.58613 9.41387,21 21,21c11.58613,0 21,-9.41387 21,-21c0,-10.91118 -8.35032,-19.89256 -19,-20.90234v-1.09766h2v-3zM40.23633,5.14648l-2.00586,2.00586l4.61523,4.61523l2.00586,-2.00586zM25,8c10.50525,0 19,8.49475 19,19c0,10.50525 -8.49475,19 -19,19c-10.50525,0 -19,-8.49475 -19,-19c0,-10.50525 8.49475,-19 19,-19zM14.99023,15.99023c-0.40692,0.00011 -0.77321,0.24676 -0.92633,0.62377c-0.15312,0.37701 -0.06255,0.80921 0.22907,1.09303l8.77734,8.77734c-0.04579,0.16808 -0.06943,0.34142 -0.07031,0.51563c0,1.10457 0.89543,2 2,2c0.17477,-0.00007 0.34878,-0.02306 0.51758,-0.06836l1.77539,1.77539c0.25082,0.26124 0.62327,0.36648 0.97371,0.27512c0.35044,-0.09136 0.62411,-0.36503 0.71547,-0.71547c0.09136,-0.35044 -0.01388,-0.72289 -0.27512,-0.97371l-1.77734,-1.77734c0.04579,-0.16808 0.06943,-0.34142 0.07031,-0.51562c0,-1.10457 -0.89543,-2 -2,-2c-0.17477,0.00007 -0.34878,0.02306 -0.51758,0.06836l-8.77539,-8.77539c-0.18827,-0.19353 -0.4468,-0.30272 -0.7168,-0.30274z"></path></g></g></svg>