<svg xmlns="http://www.w3.org/2000/svg" xmlns:xlink="http://www.w3.org/1999/xlink" viewBox="0,0,256,256" width="500px" height="500px"><g fill="#3498db" fill-rule="nonzero" stroke="none" stroke-width="1" stroke-linecap="butt" stroke-linejoin="miter" stroke-miterlimit="10" stroke-dasharray="" stroke-dashoffset="0" font-family="none" font-weight="none" font-size="none" text-anchor="none" style="mix-blend-mode: normal"><g transform="scale(5.12,5.12)"><path d="M25.05078,5c-10.64898,0 -19.36721,8.37937 -19.94531,18.89063c-0.04779,0.71859 0.29441,1.4074 0.89594,1.8034c0.60153,0.39601 1.3695,0.43807 2.01068,0.11012c0.64118,-0.32795 1.05655,-0.97526 1.08752,-1.69477c0.4639,-8.43475 7.39215,-15.10937 15.95117,-15.10937c4.58538,0 8.69889,1.92393 11.61133,5h-1.61133c-0.72127,-0.0102 -1.39216,0.36875 -1.75578,0.99175c-0.36361,0.623 -0.36361,1.39351 0,2.01651c0.36361,0.623 1.0345,1.00195 1.75578,0.99175h5.25977c0.22745,0.03968 0.46005,0.03968 0.6875,0h3.05273v-9c0.00739,-0.54026 -0.2041,-1.06052 -0.58634,-1.44239c-0.38224,-0.38187 -0.90271,-0.59286 -1.44296,-0.58495c-1.1038,0.01618 -1.9858,0.92353 -1.9707,2.02734v2.77734c-3.66814,-4.15535 -9.03615,-6.77734 -15,-6.77734zM24,14v2.08594c-1.71007,0.27255 -2.8242,1.2132 -3.36719,2.16016c-0.6431,1.12156 -0.63281,2.24219 -0.63281,2.24219c0,1.54034 0.80741,2.73551 1.82422,3.46289c1.01681,0.72738 2.21287,1.13032 3.33008,1.54102c1.11721,0.4107 2.15007,0.82701 2.81836,1.35547c0.66829,0.52846 1.02734,1.06267 1.02734,2.15234c0,0 -0.0065,0.72479 -0.47266,1.4707c-0.4662,0.74592 -1.29401,1.5293 -3.52734,1.5293c-2.16667,0 -2.97473,-0.93578 -3.48047,-1.94727c-0.50574,-1.01149 -0.51953,-2.05273 -0.51953,-2.05273h-2c0,0 -0.01379,1.45875 0.73047,2.94727c0.65212,1.30424 2.03197,2.6651 4.26953,2.98242v2.07031h2v-2.05664c2.17587,-0.25304 3.53833,-1.31914 4.22266,-2.41406c0.7838,-1.25408 0.77734,-2.5293 0.77734,-2.5293c0,-1.63933 -0.76594,-2.91475 -1.78516,-3.7207c-1.01921,-0.80595 -2.23635,-1.24763 -3.36914,-1.66406c-1.13279,-0.41643 -2.18673,-0.81124 -2.85742,-1.29102c-0.67069,-0.47978 -0.98828,-0.90178 -0.98828,-1.83594c0,0 0.01029,-0.62366 0.36719,-1.24609c0.3569,-0.62244 0.92348,-1.24219 2.63281,-1.24219c1.66667,0 2.22473,0.68578 2.60547,1.44727c0.38074,0.76149 0.39453,1.55273 0.39453,1.55273h2c0,0 0.01379,-1.20875 -0.60547,-2.44727c-0.52471,-1.04941 -1.64674,-2.14444 -3.39453,-2.45703v-2.0957zM43.08203,23.97266c-1.10338,-0.04392 -2.0336,0.81462 -2.07812,1.91797c-0.4639,8.43475 -7.39411,15.10938 -15.95312,15.10938c-4.58478,0 -8.69724,-1.92432 -11.60937,-5h1.60938c0.72127,0.0102 1.39216,-0.36875 1.75578,-0.99175c0.36361,-0.623 0.36361,-1.39351 0,-2.01651c-0.36361,-0.623 -1.0345,-1.00195 -1.75578,-0.99175h-5.2832c-0.20832,-0.03316 -0.42058,-0.03316 -0.62891,0h-3.08789v9c-0.0102,0.72127 0.36875,1.39217 0.99174,1.75578c0.623,0.36361 1.39352,0.36361 2.01651,0c0.623,-0.36361 1.00195,-1.03451 0.99174,-1.75578v-2.77734c3.66802,4.15546 9.03681,6.77734 15,6.77734c10.64898,0 19.36721,-8.37937 19.94531,-18.89062c0.03733,-0.53906 -0.14503,-1.07029 -0.50557,-1.47277c-0.36054,-0.40248 -0.86858,-0.64197 -1.40849,-0.66395z"></path></g></g></svg>