<svg xmlns="http://www.w3.org/2000/svg" xmlns:xlink="http://www.w3.org/1999/xlink" viewBox="0,0,256,256" width="480px" height="480px"><g fill="#3498db" fill-rule="nonzero" stroke="none" stroke-width="1" stroke-linecap="butt" stroke-linejoin="miter" stroke-miterlimit="10" stroke-dasharray="" stroke-dashoffset="0" font-family="none" font-weight="none" font-size="none" text-anchor="none" style="mix-blend-mode: normal"><g transform="scale(8.53333,8.53333)"><path d="M15,2c0,0 -6,4 -6,13c0,0.15885 0.01365,0.31796 0.02344,0.47656c-1.03407,0.83606 -3.02344,2.62696 -3.02344,4.06836c0,1.819 1.81836,5.45508 1.81836,5.45508l3.30078,-4.12695l0.88086,2.12695h6l0.88086,-2.12695l3.30078,4.12695c0,0 1.81836,-3.63608 1.81836,-5.45508c0,-1.4414 -1.98937,-3.2323 -3.02344,-4.06836c0.00979,-0.1586 0.02344,-0.31771 0.02344,-0.47656c0,-9 -6,-13 -6,-13zM15,9c1.105,0 2,0.895 2,2c0,1.105 -0.895,2 -2,2c-1.105,0 -2,-0.895 -2,-2c0,-1.105 0.895,-2 2,-2zM12.41797,24c-0.259,0.334 -0.41797,0.71781 -0.41797,1.13281c0,1.903 3,3.86719 3,3.86719c0,0 3,-1.93819 3,-3.86719c0,-0.415 -0.15802,-0.79781 -0.41602,-1.13281h-0.8457c0.018,0.077 0.0625,0.14556 0.0625,0.22656c0,1.359 -1.80078,2.03906 -1.80078,2.03906c0,0 -1.80078,-0.68006 -1.80078,-2.03906c0,-0.08 0.0445,-0.14956 0.0625,-0.22656z"></path></g></g></svg>